PathFileType	4	(X/Y/Z)	C:\Users\WrightLab\Desktop\Jo\P1_boxCal4.trc
DataRate	CameraRate	NumFrames	NumMarkers	Units	OrigDataRate	OrigDataStartFrame	OrigNumFrames
100.00	100.00	      45	19	mm	100.00	1055	      1205
Frame#	Time	Headset_Front			Headset_Back			Headset_Left			Headset_Right			Left_Shoulder			Right_Shoulder			Sternum			C7			Left Elbow			Right Elbow			Left Wrist			Right Wrist			Left ASIS			Right ASIS			S2			Left Knee			Right Knee			Left Ankle			Right Ankle			
		X1	Y1	Z1	X2	Y2	Z2	X3	Y3	Z3	X4	Y4	Z4	X5	Y5	Z5	X6	Y6	Z6	X7	Y7	Z7	X8	Y8	Z8	X9	Y9	Z9	X10	Y10	Z10	X11	Y11	Z11	X12	Y12	Z12	X13	Y13	Z13	X14	Y14	Z14	X15	Y15	Z15	X16	Y16	Z16	X17	Y17	Z17	X18	Y18	Z18	X19	Y19	Z19	

1055	10.540							-784.02075	505.83707	2436.86865	-322.23343	837.38855	2351.53003				-358.60141	1069.46313	2454.55127							-461.42444	145.22302	2478.30420							-929.51263	811.31921	2373.70947	-450.39273	510.50586	2443.95288																			
1056	10.550							-784.14923	505.95419	2436.27319	-322.40384	837.01337	2351.46777				-358.82043	1068.67297	2454.43359							-461.42746	145.22356	2478.30005							-929.37134	811.61713	2373.17310	-450.27417	510.55731	2443.49365																			
1057	10.560							-784.26575	505.92004	2435.42822	-322.79401	836.98010	2351.49268				-359.13034	1068.08411	2455.24146							-461.41965	145.24103	2478.27612							-929.14764	812.11206	2370.97485	-450.72629	510.57132	2442.53979										-761.02728	792.66272	2138.57202							
1058	10.570							-784.26416	505.89575	2434.62915	-323.19424	836.65820	2350.91162													-461.41470	145.25233	2478.26074										-450.79788	509.83563	2441.47559																			
1059	10.580							-784.45343	505.95090	2433.64014	-323.47998	836.25531	2351.63477				-928.78406	813.07422	2367.40991							-461.41718	145.26244	2478.23926										-450.71844	509.91537	2441.22705																			
1060	10.590							-784.41388	506.10797	2432.43018	-323.80545	835.98541	2351.73877							-928.68152	813.54755	2365.42603				-461.41165	145.27168	2478.22827										-450.94308	509.59283	2440.31104																			
1061	10.600							-784.39636	506.20386	2431.55664	-324.28778	835.58301	2351.44531							-928.53857	814.23291	2362.95044	-762.86041	794.01489	2132.77856	-461.41449	145.28256	2478.20483										-450.92670	509.57715	2440.03247																			
1062	10.610							-784.40210	506.09314	2430.67383	-324.69543	835.23383	2351.45093							-928.50043	814.63586	2361.06372				-461.41333	145.29073	2478.19092										-450.82709	509.75201	2439.33936																			
1063	10.620							-784.51636	506.07031	2429.89966	-325.18536	834.77533	2351.39233							-928.45441	814.91772	2359.96851				-461.41104	145.30795	2478.16162										-450.67383	509.89761	2438.87280																			
1064	10.630							-784.38690	506.13586	2429.20093	-325.47400	834.70416	2351.75732							-928.41003	815.61438	2357.50732				-461.40118	145.32367	2478.14331										-450.52573	509.96985	2438.41113																			
1065	10.640							-784.43311	506.01749	2428.67651	-325.75180	834.58972	2351.59326							-928.47308	816.07697	2355.41089				-461.40698	145.32695	2478.13086										-450.45673	509.96252	2438.22461																			
1066	10.650							-784.31146	505.99265	2428.19971	-325.97253	834.53003	2351.80542							-928.71259	816.35339	2353.64917				-461.41736	145.32275	2478.12720										-450.33521	509.99902	2437.92725																			
1067	10.660							-784.37427	505.92371	2427.74487	-326.18976	834.37567	2351.64429							-928.97668	816.76068	2351.40723				-461.41000	145.33855	2478.10620										-450.17682	509.92508	2437.70337																			
1068	10.670							-784.29663	505.93756	2427.24951	-326.50815	834.36664	2352.05493							-929.07367	817.23438	2348.74390				-461.41550	145.34148	2478.09473										-449.70050	510.03870	2436.96021																			
1069	10.680							-784.23889	505.90744	2426.62988	-326.52405	834.42017	2352.11499							-929.39551	817.44525	2347.50830				-461.27237	145.46626	2477.85034										-449.48480	510.02719	2436.59766																			
1070	10.690							-784.02020	506.02875	2426.13965	-326.56000	834.45782	2352.17358							-929.80212	817.69476	2345.48486				-461.27588	145.47180	2477.83618										-449.12115	510.10477	2436.17871																			
1071	10.700							-783.82898	506.02997	2425.49536	-326.56079	834.51758	2352.26929							-930.06909	818.14490	2342.80420				-461.27197	145.47682	2477.83105										-448.84866	510.25058	2435.63794																			
1072	10.710							-783.56049	506.05191	2424.92407	-326.36472	834.61981	2352.31396							-930.37543	818.67279	2340.79419				-461.27164	145.48158	2477.82275										-448.67038	510.33801	2435.05591																			
1073	10.720							-783.41815	506.10519	2424.53979	-326.17764	834.94348	2352.66528							-930.77924	818.89392	2339.94897				-461.26523	145.49593	2477.80322										-448.91656	510.85513	2434.52075																			
1074	10.730							-783.26556	505.99829	2424.03955	-325.96881	835.13989	2352.64551							-931.13892	818.99298	2337.89819				-461.26819	145.49832	2477.79541										-448.65698	510.93585	2433.99561																			
1075	10.740							-783.14093	506.11780	2423.84253	-325.64975	835.36884	2352.80859							-931.46484	819.37909	2335.69214				-461.26053	145.50720	2477.78735										-448.43933	511.01474	2433.75781																			
1076	10.750							-783.03668	506.14780	2423.66748	-325.13373	835.73120	2353.06250							-931.81702	819.60498	2333.56421				-461.07040	145.58173	2477.55176										-448.30484	511.09100	2433.73804																			
1077	10.760							-782.91742	506.17490	2423.36816	-324.55450	836.12988	2353.35278							-932.09985	819.78198	2332.33936				-461.06256	145.60007	2477.52637										-448.20258	511.13229	2433.45386																			
1078	10.770							-782.75403	506.23843	2423.15186	-324.15115	836.63098	2353.45361							-932.56293	819.81897	2331.08740				-461.06165	145.60336	2477.52124										-447.98520	511.17471	2433.26050																			
1079	10.780							-782.76764	506.27698	2423.02026	-323.52475	836.98108	2353.88550							-932.91022	820.00568	2329.74219				-461.04929	145.61952	2477.50488										-447.70276	511.25153	2432.81567																			
1080	10.790							-782.66083	506.28085	2422.76782	-323.04205	837.49683	2353.76733							-933.24060	820.23480	2327.78418				-461.03784	145.63670	2477.48560										-447.36432	511.35980	2432.40698																			
1081	10.800							-782.49225	506.27518	2422.61743	-322.71915	837.90680	2353.67529							-933.41730	820.53223	2326.16528				-461.04559	145.63594	2477.47852										-447.27994	511.34830	2432.36499																			
1082	10.810							-782.52313	506.34061	2422.52734	-322.48093	837.94196	2353.71875							-933.59283	820.79736	2324.70996				-461.04129	145.64322	2477.46973										-447.22852	511.32065	2432.32886																			
1083	10.820							-782.43683	506.37201	2422.37573	-321.96405	838.46356	2353.92920							-933.91864	820.92444	2323.97852				-461.04630	145.64099	2477.46826										-446.97858	511.48666	2431.87720																			
1084	10.830							-782.40247	506.36285	2422.20288	-321.04492	838.81506	2354.41382							-934.17908	820.98969	2323.01758				-460.87601	145.72588	2477.21460										-446.96970	511.43643	2431.84839																			
1085	10.840							-782.27948	506.23474	2421.91113	-320.20554	839.32928	2355.05493							-934.38940	821.19098	2322.12207				-461.06494	145.63419	2477.46045										-446.95560	511.42633	2431.83716																			
1086	10.850							-782.26422	506.28751	2421.80566	-319.22894	839.70709	2355.39014							-934.41290	821.31134	2320.94556				-461.07913	145.61937	2477.47241										-446.96289	511.40768	2431.83105																			
1087	10.860							-782.27148	506.33316	2421.67163	-318.19724	840.15509	2356.59766							-934.49872	821.45062	2319.82056				-461.08044	145.61987	2477.46997										-447.02908	510.53531	2430.83423																			
1088	10.870							-782.39020	506.30536	2421.45386	-317.71982	840.46149	2356.24292							-934.52112	821.60376	2318.91064				-461.10342	145.60611	2477.47021										-447.03262	511.38828	2431.85132																			
1089	10.880							-782.31366	506.38120	2421.33496	-317.07562	840.80029	2356.95728							-934.43225	821.85382	2318.28589				-461.11560	145.60220	2477.46411										-447.51855	511.14734	2430.31738																			
1090	10.890							-782.36359	506.29138	2421.04126	-316.22443	840.94800	2357.43262							-934.30322	821.86273	2317.43726				-461.13263	145.59038	2477.46753										-447.03088	511.38660	2431.84985																			
1091	10.900							-782.35950	506.23428	2420.74146	-315.41708	841.21588	2358.10962							-934.11407	822.00513	2317.05371				-461.14246	145.58134	2477.47339										-447.04214	511.43353	2431.87817																			
1092	10.910							-782.21936	506.17780	2420.24121	-314.15411	841.27264	2358.22070							-933.92816	822.12390	2316.87280				-461.14636	145.57700	2477.47705										-447.62695	511.15826	2430.36938																			
1093	10.920							-782.19666	506.12466	2419.88794	-313.17105	841.57135	2359.26660							-933.65277	822.16748	2316.63330	-783.62262	816.44165	2132.16968	-461.34827	145.50330	2477.69849										-447.25809	511.37613	2432.09790																			
1094	10.930							-782.34167	506.19113	2419.64746	-312.54633	841.88995	2359.82568							-933.47943	822.31940	2316.65234				-461.35208	145.49844	2477.70337										-447.28314	511.25385	2432.31909																			
1095	10.940							-782.28046	505.99350	2419.10791	-311.77148	841.80914	2360.29077							-933.13629	822.34723	2316.61597				-461.35156	145.49602	2477.70825										-447.27570	511.25320	2432.31543																			
1096	10.950							-782.16705	505.99313	2418.80493	-310.96057	841.75031	2360.58398							-932.76984	822.48126	2316.87720				-461.35132	145.49414	2477.71216										-447.25803	511.30072	2432.33154																			
1097	10.960							-782.22076	505.89505	2418.41504	-310.34470	841.67194	2362.08130							-932.41254	822.57648	2317.08179				-461.34311	145.49081	2477.72729										-447.33316	511.34738	2432.38721																			
1098	10.970							-782.25842	505.96704	2418.19897	-309.61789	841.74213	2362.81006							-932.05011	822.66650	2317.29199				-461.35217	145.47815	2477.74072										-447.17404	510.89606	2433.09058																			
1099	10.980							-782.08551	505.90689	2417.66553	-308.80081	841.85376	2363.80615							-931.65833	822.72034	2317.52026				-461.35260	145.47224	2477.75122										-447.16190	510.92899	2433.10181																			
